<svg width="9" height="12" viewBox="0 0 9 12" fill="none" xmlns="http://www.w3.org/2000/svg">
<g clip-path="url(#clip0_2091_1041)">
<path d="M1.17472 11.3828V9.18447C1.17472 8.9975 1.18427 8.80725 1.17382 8.62056C1.168 8.51644 1.15939 8.4131 1.1579 8.30861C1.15427 8.05226 1.16982 7.79568 1.20179 7.54159L1.18097 7.7055C1.23514 7.28205 1.33715 6.86584 1.49376 6.47162L1.43501 6.61891C1.50066 6.45519 1.57527 6.29562 1.65987 6.14191C1.70276 6.06401 1.74811 5.98762 1.79591 5.91299C1.82032 5.87486 1.84538 5.83719 1.87106 5.8C1.88327 5.78231 1.89573 5.76482 1.90812 5.74726C1.96635 5.6647 1.79756 5.89574 1.87467 5.79352C1.9915 5.63865 2.11966 5.49341 2.25763 5.35942C2.29317 5.3249 2.32936 5.29113 2.36615 5.25812C2.38371 5.24236 2.40141 5.22677 2.41925 5.21136C2.44195 5.19175 2.53601 5.11421 2.43548 5.1963C2.33691 5.2768 2.41841 5.21048 2.43988 5.19363C2.46142 5.17673 2.48312 5.16005 2.50499 5.14363C2.54951 5.11019 2.59471 5.07776 2.64051 5.04633C2.85345 4.90023 3.07936 4.77681 3.31306 4.67239L3.17384 4.73455C3.64065 4.52856 4.13417 4.40236 4.63455 4.33015L4.47962 4.35217C5.29094 4.23825 6.11608 4.2801 6.9322 4.28894C7.03339 4.29004 7.13459 4.29117 7.23578 4.29241C7.54072 4.29615 7.83256 4.00614 7.81858 3.67585C7.8043 3.33859 7.56256 3.0633 7.23578 3.05929C6.17521 3.04627 5.10761 2.99091 4.05775 3.18462C3.41129 3.3039 2.77032 3.53038 2.20307 3.88303C1.70113 4.19508 1.27769 4.60478 0.925385 5.09207C0.39948 5.81947 0.133923 6.69942 0.0292569 7.59867C-0.0118826 7.95213 -0.000524311 8.29534 0.00913511 8.64865C0.0204541 9.06266 0.00913511 9.47878 0.00913511 9.89294V11.3828C0.00913511 11.7053 0.277194 12.0143 0.591929 11.9994C0.907688 11.9844 1.17472 11.7285 1.17472 11.3828Z" fill="#0A7AFB"/>
<path d="M5.93236 7.17132C6.26044 6.82424 6.58851 6.47716 6.91658 6.13008C7.43472 5.58192 7.95286 5.03376 8.471 4.4856C8.59161 4.358 8.71222 4.2304 8.83284 4.10281C9.0554 3.86735 9.05589 3.46683 8.83284 3.23086C8.50688 2.88602 8.18092 2.54118 7.85497 2.19634C7.33808 1.6495 6.82119 1.10266 6.3043 0.555826C6.18516 0.429789 6.06603 0.303752 5.94689 0.177715C5.73103 -0.0506555 5.33562 -0.0676686 5.1227 0.177715C4.90913 0.423845 4.89234 0.805957 5.1227 1.04966C5.44865 1.3945 5.77461 1.73934 6.10056 2.08418C6.61746 2.63102 7.13435 3.17786 7.65124 3.7247C7.77037 3.85073 7.88951 3.97677 8.00864 4.10281V3.23086C7.68057 3.57794 7.3525 3.92502 7.02443 4.2721C6.50628 4.82026 5.98814 5.36842 5.47 5.91658C5.34939 6.04418 5.22878 6.17178 5.10817 6.29937C4.8923 6.52774 4.87622 6.94606 5.10817 7.17132C5.34082 7.39726 5.70201 7.41503 5.93236 7.17132Z" fill="#0A7AFB"/>
</g>
<defs>
<clipPath id="clip0_2091_1041">
<rect width="9" height="12" fill="white"/>
</clipPath>
</defs>
</svg>
