<svg xmlns="http://www.w3.org/2000/svg" style="display:none">

  <!-- Facebook -->
  <symbol id="icon-facebook" viewBox="0 0 24 24">
    <path d="M22 12a10 10 0 1 0-11.5 9.9v-7h-2.5v-2.9h2.5V9.4c0-2.5 1.5-3.9 3.8-3.9 1.1 0 2.2.2 2.2.2v2.4h-1.2c-1.2 0-1.6.8-1.6 1.5v1.8h2.8l-.4 2.9h-2.4v7A10 10 0 0 0 22 12z"/>
  </symbol>

  <!-- Instagram -->
  <symbol id="icon-instagram" viewBox="0 0 24 24">
    <path d="M7 2C4.2 2 2 4.2 2 7v10c0 2.8 2.2 5 5 5h10c2.8 0 5-2.2 
    5-5V7c0-2.8-2.2-5-5-5H7zm5 5a5 5 0 1 1 0 10 5 5 0 0 1 
    0-10zm6.5-.8a1.2 1.2 0 1 1-2.4 0 1.2 1.2 0 0 1 
    2.4 0z"/>
  </symbol>

  <!-- TikTok -->
  <symbol id="icon-tiktok" viewBox="0 0 24 24">
    <path d="M16 3c.5 2.3 2.3 4.1 4.5 4.5v3c-1.4 0-2.7-.4-3.8-1.2v6.6a5.5 
    5.5 0 1 1-5.5-5.5c.3 0 .7 0 1 .1v3.1a2.4 2.4 0 1 0 1.6 
    2.3V3h2.2z"/>
  </symbol>

  <!-- X (Twitter) -->
  <symbol id="icon-x" viewBox="0 0 24 24">
    <path d="M18 2h3l-7 8 8 12h-6l-5-7-6 7H2l8-9L2 2h6l5 7 5-7z"/>
  </symbol>

  <!-- YouTube -->
  <symbol id="icon-youtube" viewBox="0 0 24 24">
    <path d="M23 12s0-3.5-.5-5c-.3-.9-1-1.6-1.9-1.9C19.1 4.5 
    12 4.5 12 4.5s-7.1 0-8.6.6c-.9.3-1.6 1-1.9 
    1.9C1 8.5 1 12 1 12s0 3.5.5 5c.3.9 1 1.6 
    1.9 1.9 1.5.6 8.6.6 8.6.6s7.1 0 
    8.6-.6c.9-.3 1.6-1 1.9-1.9.5-1.5.5-5 .5-5zM10 
    15.5v-7l6 3.5-6 3.5z"/>
  </symbol>

  <!-- LinkedIn -->
  <symbol id="icon-linkedin" viewBox="0 0 24 24">
    <path d="M4.98 3.5a2.5 2.5 0 1 1 0 
    5 2.5 2.5 0 0 1 0-5zM3 8.98h4v12H3v-12zM9 
    8.98h3.8v1.7h.1c.5-1 1.8-2 3.7-2 4 
    0 4.7 2.6 4.7 6v6.3h-4v-5.6c0-1.3 
    0-3-1.8-3s-2.1 1.4-2.1 2.9v5.7H9v-12z"/>
  </symbol>

  <!-- WhatsApp -->
  <symbol id="icon-whatsapp" viewBox="0 0 24 24">
    <path d="M12 2a10 10 0 0 0-8.7 
    15l-1.3 4.8 4.9-1.3A10 10 0 1 0 
    12 2zm5.2 13.7c-.2.6-1.1 1.2-1.6 
    1.3-.4.1-.9.2-1.5 0-.4-.1-.9-.3-1.6-.6-2.7-1.2-4.4-4-4.6-4.2-.2-.3-1.1-1.5-1.1-2.8 
    0-1.3.7-2 1-2.3.3-.3.7-.4 1-.4h.7c.2 
    0 .5 0 .7.5.2.6.8 2 .9 2.1.1.2.1.4 
    0 .6-.1.2-.2.4-.3.6-.2.2-.4.5-.6.7-.2.2-.4.4-.2.7.2.3 
    1 1.6 2.2 2.5 1.5 1.2 2.7 1.6 3.1 
    1.8.3.1.5.1.7-.1.2-.2.8-.9 1-1.2.2-.3.4-.3.7-.2.3.1 
    2 .9 2.3 1 .3.1.5.2.6.3.1.1.1.7-.1 
    1.3z"/>
  </symbol>

</svg>