<svg xmlns="http://www.w3.org/2000/svg" fill="none" viewBox="0 0 9 12"><g clip-path="url(#a)" fill="#0a7afb"><path d="M1.175 11.383V9.184c0-.186.01-.377-.001-.563-.006-.105-.015-.208-.016-.312a5.5 5.5 0 0 1 .044-.767l-.021.163c.054-.423.156-.84.313-1.233l-.059.147a4.3 4.3 0 0 1 .436-.819l.037-.053c.058-.082-.11.149-.033.047a3.8 3.8 0 0 1 .544-.583c.023-.02.117-.097.016-.015-.098.08-.017.014.005-.002a4 4 0 0 1 .2-.148q.321-.219.673-.374l-.14.063a5.6 5.6 0 0 1 1.462-.405l-.155.022c.81-.114 1.636-.072 2.452-.063l.304.003c.305.004.597-.286.583-.616-.015-.337-.256-.613-.583-.617-1.06-.013-2.128-.068-3.178.126a5.4 5.4 0 0 0-1.855.698 4.5 4.5 0 0 0-1.278 1.21C.4 5.818.134 6.698.03 7.598c-.04.353-.03.696-.02 1.05.011.414 0 .83 0 1.244v1.49c0 .322.268.631.583.616a.61.61 0 0 0 .583-.616"/><path d="m5.932 7.171.985-1.04q.777-.824 1.554-1.645l.362-.383a.65.65 0 0 0 0-.872l-.978-1.035-1.55-1.64-.358-.378c-.216-.229-.611-.246-.824 0-.214.246-.23.628 0 .872L6.1 2.084l1.55 1.64.358.379V3.23l-.985 1.041L5.47 5.917l-.362.382c-.216.229-.232.647 0 .872.233.226.594.244.824 0"/></g><defs><clipPath id="a"><path fill="#fff" d="M0 0h9v12H0z"/></clipPath></defs></svg>