<svg xmlns="http://www.w3.org/2000/svg" id="Layer_1" version="1.1" viewBox="0 0 50.02 50"><defs><style>.st0{fill:#231f20}</style></defs><path d="M26.49 50h-2.93l-3.79-.56C10.25 47.42 2.59 39.76.57 30.25l-.55-3.8c.04-.97-.06-1.96 0-2.93C1.28 1.56 28.72-8.2 43.58 8.23 57.64 23.78 47.22 48.81 26.49 50m18.97-25.01c0-11.29-9.15-20.45-20.44-20.45S4.58 13.69 4.58 24.99s9.15 20.45 20.44 20.45 20.44-9.16 20.44-20.45"/><path d="M24.8 21.2c1.22-.13 2.39.83 2.47 2.07v14.26c-.61 2.53-4.14 2.41-4.5-.18V23.09c.21-1.02 1-1.78 2.03-1.89"/><circle cx="25.02" cy="13.62" r="3.02"/><path class="st0" d="M26.49 50h-2.93l-3.79-.56C10.25 47.42 2.59 39.76.57 30.25l-.55-3.8c.04-.97-.06-1.96 0-2.93C1.28 1.56 28.72-8.2 43.58 8.23 57.64 23.78 47.22 48.81 26.49 50m18.97-25.01c0-11.29-9.15-20.45-20.44-20.45S4.58 13.69 4.58 24.99s9.15 20.45 20.44 20.45 20.44-9.16 20.44-20.45"/><path class="st0" d="M24.8 21.2c1.22-.13 2.39.83 2.47 2.07v14.26c-.61 2.53-4.14 2.41-4.5-.18V23.09c.21-1.02 1-1.78 2.03-1.89"/><circle class="st0" cx="25.02" cy="13.62" r="3.02"/><path class="st0" d="M26.49 50h-2.93l-3.79-.56C10.25 47.42 2.59 39.76.57 30.25l-.55-3.8c.04-.97-.06-1.96 0-2.93C1.28 1.56 28.72-8.2 43.58 8.23 57.64 23.78 47.22 48.81 26.49 50m18.97-25.01c0-11.29-9.15-20.45-20.44-20.45S4.58 13.69 4.58 24.99s9.15 20.45 20.44 20.45 20.44-9.16 20.44-20.45"/><path class="st0" d="M24.8 21.2c1.22-.13 2.39.83 2.47 2.07v14.26c-.61 2.53-4.14 2.41-4.5-.18V23.09c.21-1.02 1-1.78 2.03-1.89"/><circle class="st0" cx="25.02" cy="13.62" r="3.02"/></svg>