<svg xmlns="http://www.w3.org/2000/svg" fill="none" viewBox="0 0 36 36"><g clip-path="url(#a)"><path d="M1.148 8.927A14.6 14.6 0 0 1 4.276 4.28 14.55 14.55 0 0 1 14.601 0a14.55 14.55 0 0 1 10.324 4.281 14.6 14.6 0 0 1 3.128 4.646 14.5 14.5 0 0 1 1.148 5.69 14.54 14.54 0 0 1-2.579 8.298l8.605 8.575A2.644 2.644 0 0 1 33.361 36a2.63 2.63 0 0 1-1.866-.774l-8.605-8.575a14.54 14.54 0 0 1-8.29 2.582 14.55 14.55 0 0 1-10.324-4.281 14.6 14.6 0 0 1-3.128-4.645A14.5 14.5 0 0 1 0 14.617c0-1.973.386-3.887 1.148-5.69m3.141 5.718c0 5.694 4.628 10.327 10.316 10.327s10.317-4.633 10.317-10.327c0-5.695-4.628-10.328-10.317-10.328C8.917 4.317 4.29 8.95 4.29 14.645" fill="#555"/></g><defs><clipPath id="a"><path fill="#fff" d="M0 0h36v36H0z"/></clipPath></defs></svg>