<svg xmlns="http://www.w3.org/2000/svg" fill="none" viewBox="4 0 34 49"><g filter="url(#a)"><mask id="b" maskUnits="userSpaceOnUse" x="4" y="0" width="34" height="49" fill="#000"><path fill="#fff" d="M4 0h34v49H4z"/><path d="M21 2c8.284 0 15 6.716 15 15 0 2.809-.773 5.436-2.116 7.684L21 47 8.115 24.684A14.93 14.93 0 0 1 6 17C6 8.716 12.716 2 21 2m0 6.69a7.905 7.905 0 1 0 0 15.81 7.905 7.905 0 0 0 0-15.81"/></mask><path d="M21 2c8.284 0 15 6.716 15 15 0 2.809-.773 5.436-2.116 7.684L21 47 8.115 24.684A14.93 14.93 0 0 1 6 17C6 8.716 12.716 2 21 2m0 6.69a7.905 7.905 0 1 0 0 15.81 7.905 7.905 0 0 0 0-15.81" fill="#ff6969"/><path d="m33.884 24.684-1.717-1.026-.015.026zM21 47l-1.732 1a2 2 0 0 0 3.464 0zM8.115 24.684l1.732-1-.015-.026zm4.98-8.09h-2zm15.81 0h2zM21 2v2c7.18 0 13 5.82 13 13h4c0-9.389-7.611-17-17-17zm15 15h-2c0 2.437-.67 4.711-1.833 6.658l1.717 1.026L35.6 25.71A16.93 16.93 0 0 0 38 17zm-2.116 7.684-1.732-1L19.268 46 21 47l1.732 1 12.884-22.316zM21 47l1.732-1L9.847 23.684l-1.732 1-1.732 1L19.268 48zM8.115 24.684l1.717-1.026A12.93 12.93 0 0 1 8 17H4c0 3.18.875 6.16 2.398 8.71zM6 17h2C8 9.82 13.82 4 21 4V0C11.611 0 4 7.611 4 17zm15-8.31v-2c-5.47 0-9.905 4.434-9.905 9.905h4A5.905 5.905 0 0 1 21 10.69zm-7.905 7.905h-2c0 5.47 4.434 9.905 9.905 9.905v-4a5.905 5.905 0 0 1-5.905-5.905zM21 24.5v2c5.47 0 9.905-4.435 9.905-9.905h-4A5.905 5.905 0 0 1 21 22.5zm7.905-7.905h2c0-5.47-4.434-9.906-9.905-9.906v4a5.905 5.905 0 0 1 5.905 5.906z" fill="#fff" mask="url(#b)"/></g><defs><filter id="a" x="0" y="0" width="42" height="57" filterUnits="userSpaceOnUse" color-interpolation-filters="sRGB"><feFlood flood-opacity="0" result="BackgroundImageFix"/><feColorMatrix in="SourceAlpha" values="0 0 0 0 0 0 0 0 0 0 0 0 0 0 0 0 0 0 127 0" result="hardAlpha"/><feOffset dy="4"/><feGaussianBlur stdDeviation="2"/><feComposite in2="hardAlpha" operator="out"/><feColorMatrix values="0 0 0 0 0 0 0 0 0 0 0 0 0 0 0 0 0 0 0.25 0"/><feBlend in2="BackgroundImageFix" result="effect1_dropShadow_2073_2489"/><feBlend in="SourceGraphic" in2="effect1_dropShadow_2073_2489" result="shape"/></filter></defs></svg>